<svg xmlns="http://www.w3.org/2000/svg" width="220" height="53" viewBox="0 0 220 53"><defs><mask id="u3bxb" width="2" height="2.01" x="-1" y="-1"><path fill="#fff" d="M3.8 1.8h212.4v45.4H3.8z"/><path d="M26.5 2h167C205.926 2 216 12.074 216 24.5S205.926 47 193.5 47h-167C14.074 47 4 36.926 4 24.5S14.074 2 26.5 2z"/></mask><filter id="u3bxa" width="242.2" height="77.2" x="-11.1" y="-13.1" filterUnits="userSpaceOnUse"><feOffset dy="2" in="SourceGraphic" result="FeOffset1023Out"/><feGaussianBlur in="FeOffset1023Out" result="FeGaussianBlur1024Out" stdDeviation="1.9600000000000002 1.9600000000000002"/></filter></defs><g><g><g filter="url(#u3bxa)"><path fill="none" stroke="#212121" stroke-opacity=".35" stroke-width=".4" d="M26.5 2h167C205.926 2 216 12.074 216 24.5S205.926 47 193.5 47h-167C14.074 47 4 36.926 4 24.5S14.074 2 26.5 2z" mask="url(&quot;#u3bxb&quot;)"/><path fill="#212121" fill-opacity=".35" d="M26.5 2h167C205.926 2 216 12.074 216 24.5S205.926 47 193.5 47h-167C14.074 47 4 36.926 4 24.5S14.074 2 26.5 2z"/></g><path fill="#fff" d="M26.5 2h167C205.926 2 216 12.074 216 24.5S205.926 47 193.5 47h-167C14.074 47 4 36.926 4 24.5S14.074 2 26.5 2z"/></g></g></svg>